<svg width="454" height="302" viewBox="0 0 454 302" fill="none" xmlns="http://www.w3.org/2000/svg">
<rect width="454" height="302" fill="white"/>
<path d="M59.3123 193.988C62.764 192.956 66.4622 193.588 69.9909 194.25C77.2025 195.575 84.3986 196.9 91.6101 198.225C93.5825 198.595 95.6166 198.98 97.327 200.028C100.763 202.154 102.119 206.391 103.213 210.289C105.401 208.594 107.59 206.914 109.762 205.22C111.534 207.392 112.613 210.119 112.767 212.923C113.014 214.402 115.479 213.817 116.08 212.445C116.681 211.074 116.527 209.364 117.498 208.239C118.13 207.5 119.131 207.161 120.071 206.884C123.261 205.898 126.451 204.912 129.625 203.91C131.751 203.248 133.955 202.585 136.174 202.816C138.285 203.032 140.257 204.049 142.384 204.141C146.298 204.311 149.595 201.368 153.34 200.197C159.087 198.41 165.929 201.537 168.348 207.053C168.071 209.811 167.809 212.584 167.532 215.342C170.228 214.34 172.863 217.514 172.863 220.395C172.863 223.276 171.353 225.926 170.737 228.73C168.672 238.221 178.072 247.296 187.764 247.958C189.706 248.097 192.156 248.297 192.803 250.146C193.62 252.503 190.584 254.167 188.935 256.047C184.297 261.285 190.414 270.637 186.192 276.199C189.613 281.53 193.05 286.86 196.47 292.191C197.318 293.501 198.181 294.841 199.352 295.858C203.759 299.71 210.539 298.015 216.071 296.089C216.472 293.901 216.888 291.729 217.288 289.541C235.086 290.327 250.773 278.618 267.923 273.826C284.889 269.081 303.488 271.13 319.806 264.505C322.318 263.488 324.799 262.24 326.694 260.299C334.122 252.719 329.976 238.052 338.174 231.288C340.439 229.424 343.49 228.345 344.954 225.803C346.187 223.631 347.096 220.75 346.064 218.485C340.948 207.315 353.445 203.171 360.287 205.975C360.857 204.064 361.411 202.138 361.982 200.228C361.026 198.857 361.904 197.593 363.307 196.669C364.694 195.744 366.435 195.005 366.974 193.418C367.498 191.877 366.681 190.013 367.544 188.642C367.93 188.026 368.577 187.656 369.193 187.271C372.552 185.175 375.65 181.832 375.511 177.873C375.28 171.433 366.758 166.949 367.93 160.602C370.241 160.602 372.537 160.602 374.848 160.602C375.557 155.271 371.412 150.603 367.282 147.182C366.157 146.242 364.909 145.133 364.894 143.685C364.879 140.773 369.085 140.372 371.397 138.616C373.369 137.122 374.864 133.994 377.252 134.641C377.992 134.841 378.593 135.411 379.317 135.673C382.229 136.706 384.171 132.684 386.76 130.974C388.547 129.803 390.828 129.757 392.97 129.634C395.158 129.511 397.346 129.249 399.503 128.864V128.848C399.395 127.646 399.734 126.445 399.842 125.243C400.212 121.098 397.423 116.892 393.463 115.614C391.552 114.997 389.164 114.813 388.193 113.056C387.653 112.101 387.73 110.93 387.823 109.836C388.085 106.631 388.347 103.411 388.593 100.207C388.701 98.774 388.886 97.2025 389.949 96.2319C391.953 94.3985 396.098 95.6156 397.146 93.1043C397.87 91.3788 396.267 89.607 395.959 87.7582C395.79 86.7567 396.021 85.7244 396.329 84.7538C397.762 80.1318 400.844 76.0335 404.881 73.3836C406.884 72.074 409.411 70.595 409.365 68.2069C409.303 65.4029 405.883 64.2165 403.633 62.5218C401.707 61.0735 400.412 58.8396 398.301 57.6686C394.973 55.8352 390.828 57.2064 387.083 56.5594C384.109 56.0509 381.52 54.2791 378.716 53.1544C375.912 52.0297 372.398 51.66 370.133 53.6629C369.44 54.2791 368.916 55.0803 368.114 55.5425C366.204 56.6518 363.677 55.2498 362.536 53.3393C361.396 51.4289 361.134 49.1486 360.317 47.0841C359.192 44.2647 357.081 41.9845 354.924 39.8584C350.579 35.6215 343.768 31.0765 338.359 33.8343C334.599 33.4337 330.793 33.0331 327.234 31.739C321.347 29.6128 316.586 25.2527 311.146 22.1713C305.707 19.09 298.588 17.426 293.379 20.8772C292.624 21.3702 291.931 21.9711 291.13 22.3716C288.202 23.8199 284.704 22.3562 281.946 20.6152C279.896 19.3056 277.693 17.1333 278.479 14.8223C279.033 13.1584 280.975 12.2339 281.483 10.5546C281.93 9.07553 281.052 7.44243 279.804 6.53343C278.556 5.62442 276.999 5.27005 275.474 4.9311C272.577 4.29942 269.634 3.65233 266.675 3.86803C261.313 4.26861 256.597 7.42699 252.298 10.647C241.835 18.4891 231.866 27.5175 219.569 31.97C218.12 32.4939 216.61 32.9715 215.362 33.8651C213.975 34.8357 212.974 36.2686 211.618 37.2854C210.262 38.3023 208.258 38.8261 206.918 37.7938C208.89 34.3735 209.491 30.5218 209.753 26.5469C206.964 27.687 204.083 28.5651 201.047 29.0273C200.107 29.166 199.105 29.2584 198.258 28.8425C196.809 28.1337 196.424 26.3004 195.777 24.8213C195.13 23.3423 193.373 21.9094 192.063 22.8646C191.478 25.191 192.495 27.5945 192.449 29.998C192.402 32.386 190.168 35.1439 188.026 34.0654C187.132 33.6186 186.639 32.6479 186.007 31.8776C184.158 29.5974 179.782 29.3663 178.765 32.1241C177.501 35.5444 182.51 38.9955 181.215 42.4159C180.583 44.0952 178.626 44.9734 178.01 46.6527C176.392 51.0437 184.913 53.971 183.896 58.5314C183.172 61.8285 178.626 61.9209 175.267 62.0596C172.463 62.1828 169.581 62.9378 167.424 64.7404C165.267 66.543 163.988 69.8246 164.712 72.5516C160.428 74.1385 160.027 80.3474 162.2 84.3532C164.373 88.3744 168.179 91.3017 170.382 95.3075C170.737 95.9546 171.06 96.6633 170.983 97.4028C170.891 98.358 170.182 99.113 169.504 99.7755C166.561 102.718 163.618 105.676 160.675 108.619C159.719 109.574 158.733 110.591 158.363 111.885C157.762 114.027 159.072 116.322 160.921 117.57C162.77 118.818 165.02 119.219 167.208 119.604C165.39 121.853 163.51 124.241 163.032 127.107C162.555 129.957 164.018 133.378 166.854 133.979C165.636 139.725 156.375 138.785 152.754 143.423C151.629 144.856 151.136 146.782 149.734 147.968C147.623 149.755 144.372 149.108 141.968 147.752C139.564 146.396 137.453 144.44 134.818 143.67C131.428 142.668 127.822 143.793 124.309 144.085C117.313 144.671 109.069 142.298 104.061 147.198C102.366 148.862 101.241 151.25 99.0374 152.159C96.8339 153.068 93.6442 150.387 95.3084 148.677C90.2079 150.911 84.8301 152.544 79.3289 153.499C75.2301 154.208 70.8692 154.639 67.5254 157.12C64.2432 159.554 62.5636 163.498 60.622 167.088C58.6805 170.662 55.2442 174.498 51.3149 173.451C51.2995 175.3 51.2686 177.133 51.2532 178.982C50.8988 178.951 50.5444 178.905 50.19 178.874C50.2054 178.982 50.2208 179.09 50.2362 179.198C50.3903 180.476 50.4828 181.848 49.8202 182.957C49.1576 184.066 47.894 184.652 46.9232 185.514C42.547 189.474 45.86 196.946 45.4902 202.77C46.9232 202.03 48.31 201.214 49.6198 200.259C52.7633 198.009 55.6141 195.113 59.3123 193.988Z" fill="#00ACA4" stroke="white"/>
</svg>
